<?xml version="1.0" standalone="no"?>
<!DOCTYPE svg PUBLIC "-//W3C//DTD SVG 20010904//EN"
 "http://www.w3.org/TR/2001/REC-SVG-20010904/DTD/svg10.dtd">
<svg version="1.0" xmlns="http://www.w3.org/2000/svg"
 width="1280.000000pt" height="720.000000pt" viewBox="0 0 1280.000000 720.000000"
 preserveAspectRatio="xMidYMid meet">
<metadata>
Created by potrace 1.16, written by Peter Selinger 2001-2019
</metadata>
<g transform="translate(0.000000,720.000000) scale(0.100000,-0.100000)"
fill="#000000" stroke="none">
<path d="M0 3600 l0 -3600 6400 0 6400 0 -2 3603 -3 3602 -2 -3597 -3 -3598
-6385 0 -6385 0 0 3595 c0 2390 -3 3595 -10 3595 -7 0 -10 -1207 -10 -3600z"/>
<path d="M5545 5916 c-909 -190 -1617 -927 -1790 -1862 -66 -359 -52 -736 42
-1086 14 -54 29 -98 33 -98 4 0 37 22 73 50 78 59 272 191 328 222 26 14 38
27 34 37 -16 54 -37 228 -42 356 -21 543 182 1057 564 1426 247 239 526 389
853 458 l75 16 3 253 2 252 -32 -1 c-18 0 -82 -11 -143 -23z"/>
<path d="M6240 4945 c0 -547 4 -995 8 -995 5 0 98 18 208 39 109 22 220 43
247 46 l47 7 0 888 0 888 -92 31 c-141 46 -339 91 -400 91 -17 0 -18 -54 -18
-995z"/>
<path d="M7010 5396 l0 -294 54 -41 c77 -59 223 -213 296 -311 121 -164 218
-350 280 -540 l28 -85 183 -2 c101 -1 219 -4 262 -8 l78 -6 -7 28 c-15 69 -65
236 -95 318 -45 124 -171 370 -248 485 -145 215 -345 428 -541 574 -108 80
-260 176 -279 176 -8 0 -11 -85 -11 -294z"/>
<path d="M5610 4884 c-106 -35 -246 -107 -326 -167 l-69 -52 -3 -518 c-1 -284
-1 -517 0 -517 2 0 28 10 58 22 30 11 143 51 250 88 l195 68 3 551 c2 520 1
551 -15 551 -10 0 -52 -12 -93 -26z"/>
<path d="M8000 3989 c-1323 -97 -2607 -541 -3495 -1207 -177 -133 -455 -381
-455 -405 0 -17 95 -160 173 -260 337 -432 830 -734 1356 -832 46 -8 96 -15
112 -15 l29 0 2 882 3 882 95 54 c115 65 400 212 412 212 4 0 9 -227 10 -504
l3 -504 88 28 c117 37 255 108 342 173 l70 52 3 492 2 491 28 10 c260 95 359
129 499 171 189 56 402 111 431 111 18 0 20 -10 27 -117 13 -222 -32 -540
-101 -726 -115 -307 -235 -497 -444 -708 -145 -146 -280 -246 -446 -330 -125
-63 -321 -132 -433 -151 l-71 -12 0 -257 0 -256 87 14 c485 77 947 330 1288
703 318 347 515 756 596 1235 24 141 36 486 21 610 -5 44 -6 84 -2 88 15 17
430 54 660 59 l85 1 -70 8 c-111 12 -767 19 -905 8z m-2790 -1669 c0 -304 -2
-370 -13 -370 -17 0 -170 95 -245 151 -68 52 -198 169 -217 196 -15 21 -12 25
76 100 122 104 371 293 387 293 9 0 12 -81 12 -370z"/>
</g>
</svg>
